# xmcd CD database file
#
# Track frame offsets:
#	150
#	20025
#	40272
#	61735
#
# Disc length: 1106 seconds
#
# Revision: 0
# Processed by: cddbd v1.5.1PL0 Copyright (c) Steve Scherf et al.
# Submitted via: CDex 1.51
#
DISCID=2c045004
DTITLE=Wild Orchid - At night I pray [CD-Single)
DYEAR=1996
DGENRE=Jazz
TTITLE0=At night I pray (Album version)
TTITLE1=At night I pray (The up the middle mix)
TTITLE2=At night I pray (feat. L.V.) (The barr 9 remix) (edit)
TTITLE3=At night I pray (feat. K-Borne) (The barr 9 remix) (edit)
EXTD=YEAR: 1996
EXTT0=
EXTT1=
EXTT2=
EXTT3=
PLAYORDER=
